<?xml version="1.0" encoding="UTF-8"?>
<!-- Generator: Adobe Illustrator 28.2.0, SVG Export Plug-In . SVG Version: 6.00 Build 0)  -->
<svg xmlns="http://www.w3.org/2000/svg" xmlns:xlink="http://www.w3.org/1999/xlink" version="1.1" id="Layer_1" x="0px" y="0px" width="440" height="190" viewBox="0 0 440 190" style="enable-background:new 0 0 440 190;" xml:space="preserve">
<style type="text/css">
	.st0{fill:#FFFFFF;}
</style>
<g>
	<path class="st0" d="M430,86.6c0,0-69.9-34.7-155.2-32.5c-102.3,2.6-153.9,40.4-153.9,40.4l0-1.9c0,0,64.5-47.8,153.4-50.1   C363,40.2,430,84.7,430,84.7L430,86.6z"></path>
	<path class="st0" d="M236.8,46.1c4-0.7,8-1.3,12.1-1.8c-23.6-5.9-67.9-13.2-117.6-2.9C57.4,56.6,10,102.6,10,102.6l0.3,1.4   c0,0,38-36.4,123-53.9C173.8,41.8,211.7,43.3,236.8,46.1z"></path>
	<g>
		<g>
			<path class="st0" d="M89,150.5c-0.2,0.5-0.9,0.5-1.2,0l-13.9-36.3L60,150.5c-0.2,0.5-1,0.5-1.1,0l-18.5-47.9     c-0.2-0.4,0.1-0.7,0.6-0.7h8.3c0.3,0,0.5,0.1,0.6,0.3l9.5,25.5l9.7-25.5c0.1-0.2,0.3-0.3,0.6-0.3h8.3c0.3,0,0.5,0.1,0.6,0.3     l9.7,25.5l9.5-25.5c0.1-0.2,0.3-0.3,0.6-0.3h8.3c0.5,0,0.8,0.3,0.6,0.7L89,150.5z"></path>
			<path class="st0" d="M113,102.4c0-0.3,0.3-0.5,0.7-0.5h7.6c0.4,0,0.7,0.3,0.7,0.5v46.1c0,0.3-0.3,0.5-0.7,0.5h-7.6     c-0.4,0-0.7-0.3-0.7-0.5V102.4z"></path>
			<path class="st0" d="M157.2,140.3c0.4,0,0.7,0.3,0.7,0.5v7.6c0,0.3-0.3,0.5-0.7,0.5h-24.6c-0.4,0-0.7-0.3-0.7-0.5v-46.1     c0-0.3,0.3-0.5,0.7-0.5h7.6c0.4,0,0.7,0.3,0.7,0.5v37.9H157.2z"></path>
			<path class="st0" d="M191.1,140.3c0.4,0,0.7,0.3,0.7,0.5v7.6c0,0.3-0.3,0.5-0.7,0.5h-24.6c-0.4,0-0.7-0.3-0.7-0.5v-46.1     c0-0.3,0.3-0.5,0.7-0.5h7.6c0.4,0,0.7,0.3,0.7,0.5v37.9H191.1z"></path>
			<path class="st0" d="M242,125.3c0,12.1-7.8,24.3-23.3,24.3c-15.8,0-23.5-12.2-23.5-24.3c0-12.1,7.7-24.2,23.5-24.2     C234.1,101.1,242,113.3,242,125.3z M232.8,125.5c0-7.9-4.8-15.8-14.2-15.8c-9.5,0-14.3,7.9-14.3,15.8c0,7.8,4.7,15.6,14.3,15.6     C228,141.1,232.8,133.3,232.8,125.5z"></path>
			<path class="st0" d="M272.7,128.8c0,0.3-0.2,0.5-0.6,0.5h-23.3c-0.4,0-0.7-0.3-0.7-0.5v-7c0-0.3,0.3-0.5,0.7-0.5h23.3     c0.4,0,0.6,0.3,0.6,0.5V128.8z"></path>
			<path class="st0" d="M316.2,101.8c0.4,0,0.7,0.3,0.7,0.5v46.1c0,0.3-0.3,0.5-0.7,0.5h-7.7c-0.4,0-0.7-0.3-0.7-0.5v-18.7h-17.9     v18.7c0,0.3-0.3,0.5-0.7,0.5h-7.7c-0.4,0-0.7-0.3-0.7-0.5v-46.1c0-0.3,0.3-0.5,0.7-0.5h7.7c0.4,0,0.7,0.3,0.7,0.5V121h17.9v-18.6     c0-0.3,0.3-0.5,0.7-0.5H316.2z"></path>
			<path class="st0" d="M327.2,102.4c0-0.3,0.3-0.5,0.7-0.5h7.6c0.4,0,0.7,0.3,0.7,0.5v46.1c0,0.3-0.3,0.5-0.7,0.5h-7.6     c-0.4,0-0.7-0.3-0.7-0.5V102.4z"></path>
			<path class="st0" d="M371.3,140.3c0.4,0,0.7,0.3,0.7,0.5v7.6c0,0.3-0.3,0.5-0.7,0.5h-24.6c-0.4,0-0.7-0.3-0.7-0.5v-46.1     c0-0.3,0.3-0.5,0.7-0.5h7.6c0.4,0,0.7,0.3,0.7,0.5v37.9H371.3z"></path>
			<path class="st0" d="M405.2,140.3c0.4,0,0.7,0.3,0.7,0.5v7.6c0,0.3-0.3,0.5-0.7,0.5h-24.6c-0.4,0-0.7-0.3-0.7-0.5v-46.1     c0-0.3,0.3-0.5,0.7-0.5h7.6c0.4,0,0.7,0.3,0.7,0.5v37.9H405.2z"></path>
		</g>
	</g>
	<g>
		<path class="st0" d="M267.2,174.7l2.4,2.4c-1.8,1.8-4.3,2.9-7.1,2.9c-5.6,0-10.1-4-10.1-10.3c0-6.1,4.2-10.3,10.1-10.3    c2.8,0,5.3,1.1,7.1,3l-2.4,2.4c-1.2-1.2-2.9-2-4.8-2c-4.2,0-6.7,2.9-6.7,7c0,4.3,3,7,6.7,7C264.3,176.6,266,175.9,267.2,174.7z"></path>
		<path class="st0" d="M299.8,159.6v20.1h-3.4v-8.4H288v8.4h-3.4v-20.1h3.4v8.3h8.4v-8.3H299.8z"></path>
		<path class="st0" d="M315.9,173.3v-13.7h3.4v13.7c0.2,2.3,2,3.4,4.2,3.4c2.1,0,4.2-1.1,4.2-3.4v-13.7h3.4v13.7    c0,4.3-3.3,6.7-7.6,6.7C319.3,180,315.9,177.4,315.9,173.3z"></path>
		<path class="st0" d="M353.2,171.3h-2.7v8.4h-3.4v-20.1h6.7c0,0,6.7,0,6.7,5.9c0,3.2-2.1,4.7-3.9,5.3l4.1,8.9h-3.7L353.2,171.3z     M350.4,168h3.3c0,0,3.4,0,3.4-2.5c0-2.5-3.4-2.5-3.4-2.5h-3.3V168z"></path>
		<path class="st0" d="M390.1,174.7l2.4,2.4c-1.8,1.8-4.3,2.9-7.1,2.9c-5.6,0-10.1-4-10.1-10.3c0-6.1,4.2-10.3,10.1-10.3    c2.8,0,5.3,1.1,7.1,3l-2.4,2.4c-1.2-1.2-2.9-2-4.8-2c-4.2,0-6.7,2.9-6.7,7c0,4.3,3,7,6.7,7C387.2,176.6,388.9,175.9,390.1,174.7z"></path>
		<path class="st0" d="M422.6,159.6v20.1h-3.4v-8.4h-8.4v8.4h-3.4v-20.1h3.4v8.3h8.4v-8.3H422.6z"></path>
	</g>
	<g>
		<title>Layer 1</title>
		<g id="layer1_2_">
			<path id="rect1061_2_" class="st0" d="M136.6,10.4l0.9,9l-9.2,0.9l0.4,4.5l9.2-0.9l2,19.1l4.6,0.6l-2-20.2l9.2-0.9l-0.4-4.5     L142,19l-0.9-9L136.6,10.4L136.6,10.4z"></path>
		</g>
	</g>
</g>
</svg>
